<svg width="167" height="48" viewBox="0 0 167 48" fill="none" xmlns="http://www.w3.org/2000/svg">
<path fill-rule="evenodd" clip-rule="evenodd" d="M10.943 0C18.308 0 21.959 3.585 21.959 11.5605V36.6075C21.959 44.4165 18.3725 48 10.943 48C3.51499 48 0.000488281 44.415 0.000488281 36.6075V11.5605C0.000488281 3.5835 3.57799 0 10.943 0ZM156.185 0C163.046 0 166.265 3.3525 166.265 10.464V13.488L158.405 14.4795V10.3995C158.405 7.4085 157.607 6.2805 156.009 6.2805C154.809 6.2805 154.187 7.1445 154.187 8.6805C154.187 10.9035 154.986 13.9605 158.181 18.3765L161.297 22.8C164.412 27.216 167 31.335 167 37.545C167 44.3595 163.421 47.9445 156.519 47.9445C149.619 47.9445 145.968 44.448 145.968 36.936V33.048L154.163 31.9995V36.984C154.163 40.3035 154.898 41.568 156.72 41.568C157.951 41.568 158.645 40.5675 158.645 38.808C158.645 35.4165 157.487 32.0955 154.467 27.6795L151.448 23.232C148.46 18.807 146.04 15.057 146.04 10.272C146.064 3.1995 149.547 0 156.185 0ZM31.097 0.7275L32.6225 21.2955C32.99 26.0955 33.125 29.3685 33.1895 35.0475H33.9155C34.0205 29.4 34.187 26.0085 34.547 21.2955L36.1445 0.7275H44.468L45.9935 21.2955C46.3535 26.0085 46.4885 29.4 46.5935 35.0475H47.3195C47.4545 29.4 47.5835 26.112 47.9495 21.2955L49.478 0.7275H57.7055L52.16 47.2395H42.575L41.48 32.8005C41.0165 26.9595 40.754 22.3995 40.5545 16.3275H39.8585C39.6275 22.44 39.3875 26.9205 38.924 32.8005L37.829 47.2005H28.316L22.5095 0.7275H31.097ZM67.472 0.7275V40.224H74.6615V47.2395H58.8455V0.7275H67.472ZM90.533 0.7275V40.224H97.7225V47.2395H81.914V0.7275H90.533ZM116.093 0.7275L122.213 47.2395H113.273L112.811 41.2875H107.636L107.171 47.2395H98.8805L104.75 0.7275H116.093ZM135.648 0.7275C141.687 0.7275 144.243 3.5205 144.243 9.7995V15.2805C144.243 19.728 142.445 21.624 139.626 22.6245V23.352C142.821 24.48 144.834 26.7765 144.834 31.9605V37.9035C144.834 44.304 142.086 47.2395 136.047 47.2395H123.347V0.7275H135.647H135.648ZM10.9745 6.7125C9.40999 6.7125 8.65849 7.9035 8.65849 10.3995V37.8315C8.65849 40.1595 9.41749 41.2875 10.9745 41.2875C12.533 41.2875 13.2995 40.1595 13.2995 37.8315V10.3995C13.2995 7.9035 12.5405 6.7125 10.9745 6.7125ZM133.89 26.208H131.966V40.608L133.89 40.56C135.416 40.56 136.016 39.7605 136.016 37.5675V29.0955C136.016 26.976 135.416 26.208 133.89 26.208ZM110.51 12.0555H109.815C109.68 18.0075 109.448 21.528 109.089 27.408L108.29 35.4075H112.107L111.309 27.408C110.942 21.528 110.709 18.0075 110.51 12.0555ZM133.794 7.344H131.964V19.9995H133.794C135.32 19.9995 135.911 19.3035 135.911 17.2395V10.2C135.911 8.1045 135.32 7.344 133.796 7.344H133.794Z" fill="#141414"/>
</svg>
