<svg width="21" height="22" viewBox="0 0 21 22" fill="none" xmlns="http://www.w3.org/2000/svg">
<path id="Icon" fill-rule="evenodd" clip-rule="evenodd" d="M10.5 0.378906C13.864 0.378906 15.598 2.47491 15.616 6.39891L18 6.39991C18.299 6.39991 18.552 6.61991 18.594 6.91491L20.104 17.4909C20.386 19.4589 19.018 21.2829 17.05 21.5639C16.881 21.5879 16.711 21.5999 16.541 21.5999H4.45901C2.47101 21.5999 0.859009 19.9879 0.859009 17.9999C0.859009 17.8299 0.871009 17.6599 0.895009 17.4899L2.40601 6.91591C2.44801 6.61991 2.70101 6.39991 3.00001 6.39991H5.42601C5.41501 2.47691 7.13601 0.378906 10.5 0.378906ZM17.48 7.59991H3.51901L2.07301 17.7449L2.06501 17.8299L2.05901 17.9999C2.05901 19.3249 3.13401 20.3999 4.45901 20.3999H16.541C16.655 20.3999 16.768 20.3919 16.881 20.3759C18.193 20.1879 19.104 18.9729 18.917 17.6609L17.48 7.59991ZM10.5 1.57891C7.86801 1.57891 6.60601 3.09591 6.62601 6.39891L14.416 6.39991C14.41 3.09691 13.133 1.57991 10.5 1.57991V1.57891Z" fill="#141414"/>
</svg>
